<svg preserveAspectRatio="none" width="100%" height="100%" overflow="visible" style="display: block;" viewBox="0 0 471 234" fill="none" xmlns="http://www.w3.org/2000/svg">
<path id="Ellipse 1329136868" d="M235.5 1C300.411 1 359.128 14.0735 401.579 35.1641C444.092 56.2853 470 85.2776 470 117C470 148.722 444.092 177.715 401.579 198.836C359.128 219.927 300.411 233 235.5 233C170.589 233 111.872 219.927 69.4209 198.836C26.9079 177.715 1 148.722 1 117C1 85.2776 26.9079 56.2853 69.4209 35.1641C111.872 14.0735 170.589 1 235.5 1Z" fill="url(#paint0_linear_0_17)" stroke="url(#paint1_linear_0_17)" stroke-width="2"/>
<defs>
<linearGradient id="paint0_linear_0_17" x1="235.5" y1="0" x2="235.5" y2="149" gradientUnits="userSpaceOnUse">
<stop stop-color="white" stop-opacity="0.56"/>
<stop offset="1" stop-color="white" stop-opacity="0"/>
</linearGradient>
<linearGradient id="paint1_linear_0_17" x1="39.5" y1="66.5" x2="427" y2="66.5" gradientUnits="userSpaceOnUse">
<stop stop-color="white" stop-opacity="0.1"/>
<stop offset="0.509664" stop-color="white"/>
<stop offset="1" stop-color="white" stop-opacity="0.35"/>
</linearGradient>
</defs>
</svg>
